<svg width="758" height="428" viewBox="0 0 758 428" fill="none" xmlns="http://www.w3.org/2000/svg">
<path d="M151.713 412.596C129.68 411.585 110.242 408.318 91.5782 402.523C70.3205 395.92 49.7366 385.578 32.9596 373.045C27.4346 368.935 21 363.68 21 363.275C21 363.107 23.8299 359.603 27.2998 355.46C43.1336 336.56 47.749 331.069 54.2509 323.287C58.0915 318.671 62.4373 313.483 63.9196 311.731C65.402 309.98 66.6484 308.497 66.6821 308.43C66.7158 308.363 68.6361 309.71 70.9269 311.428C95.4525 329.721 121.056 340.199 149.186 343.466C154.273 344.039 171.219 344.039 174.958 343.466C184.762 341.917 192.14 338.278 195.508 333.326C197.665 330.193 198.372 327.666 198.338 323.186C198.305 317.964 197.631 316.145 194.531 313.045C189.68 308.262 182.336 305.836 149.692 298.256C121.393 291.72 106.267 287.408 92.4205 281.95C86.2217 279.491 75.0707 274.034 70.6911 271.271C49.4671 257.998 38.6193 241.322 35.4188 217.066C34.7788 212.181 34.8798 197.998 35.621 192.641C40.5396 156.19 63.3469 129.576 100.607 116.808C111.893 112.933 124.054 110.575 137.867 109.564C149.119 108.756 170.006 109.463 182.875 111.148C211.713 114.854 237.653 124.253 260.157 139.143C265.042 142.344 272.252 147.633 272.959 148.475C273.262 148.846 269.186 154.842 253.251 177.346C242.201 192.978 232.903 206.049 232.566 206.386C231.994 206.993 231.859 206.925 228.321 204.5C219.933 198.739 209.287 192.911 199.72 188.834C174.655 178.121 145.75 174.651 130.893 180.581C121.022 184.489 116.542 192.709 119.035 202.411C120.382 207.734 123.549 211.103 130.32 214.404C137.361 217.841 147.232 220.603 171.589 225.993C192.948 230.71 205.076 233.91 216.834 237.919C249.95 249.239 268.748 264.264 276.833 285.892C281.415 298.155 282.763 314.022 280.573 329.923C276.833 356.908 262.853 378.638 239.877 393.158C235.666 395.819 226.603 400.367 221.617 402.321C208.647 407.408 194.835 410.507 178.327 411.99C172.903 412.461 156.8 412.832 151.713 412.596Z" fill="white"/>
<path d="M320.83 261.03V114.315H362.099H403.368V261.03V407.745H362.099H320.83V261.03Z" fill="white"/>
<path d="M660.516 380.726C671.128 365.836 681.909 350.71 684.503 347.105L689.219 340.502L712.869 373.989C725.906 392.383 736.552 407.509 736.552 407.61C736.552 407.678 715.092 407.745 688.882 407.745H641.246L660.516 380.726Z" fill="white"/>
<path d="M479.741 181.221C453.868 144.601 432.678 114.584 432.678 114.483C432.678 114.382 454.407 114.315 480.954 114.315H529.196L552.24 146.892C564.907 164.815 575.283 179.604 575.283 179.806C575.283 180.21 527.411 247.487 527.04 247.656C526.906 247.689 505.614 217.807 479.741 181.221Z" fill="white"/>
<path d="M218.316 72.2037C212.387 71.5636 208.142 70.0813 206.424 68.0599C205.11 66.5102 204.066 64.0173 203.358 60.7494C202.819 58.2565 202.752 56.1341 202.752 43.7366C202.752 31.4064 202.819 29.284 203.325 27.2964C204.47 22.9168 206.256 20.3565 209.321 18.8068C213.869 16.4822 222.224 15.539 231.96 16.2127C239.978 16.7854 243.347 17.6614 245.267 19.7164C246.952 21.5356 248.064 25.6119 248.064 30.1936V32.4508H245.2H242.336V30.4968C242.336 28.1386 241.562 24.9382 240.652 23.6917C239.237 21.704 235.295 20.9966 225.559 20.9966C216.16 21.0302 212.219 21.8725 210.366 24.2307C208.58 26.4878 208.007 31.5749 208.007 44.4103C207.974 57.6838 208.648 62.3328 210.837 64.6574C212.892 66.8134 217.979 67.622 228.288 67.4198C240.046 67.1503 241.393 66.2744 242.404 58.2228C242.606 56.4036 242.673 53.9443 242.505 52.2262L242.269 49.2952H233.375H224.481V46.937V44.5788H236.306H248.131L247.962 52.7652C247.592 70.3171 245.907 71.9342 227.85 72.3384C224.245 72.4395 219.967 72.3721 218.316 72.2037Z" fill="white"/>
<path d="M373.15 72.2039C365.099 71.429 361.325 69.2392 359.506 64.3207C358.765 62.2656 358.765 62.2319 358.63 39.4583L358.529 16.6172H361.393H364.256L364.357 38.4476C364.492 58.5599 364.526 60.3791 365.132 62.1983C366.581 66.7799 368.232 67.319 380.292 67.319C389.961 67.319 392.151 66.9821 394.004 65.2303C396.328 63.0068 396.631 59.7727 396.631 35.9209V16.6172H399.529H402.392L402.257 38.616C402.156 57.8861 402.055 60.8507 401.55 62.771C400.034 68.5655 397.406 70.6879 390.231 71.867C387.199 72.3386 376.89 72.5744 373.15 72.2039Z" fill="white"/>
<path d="M525.524 72.204C518.854 71.5639 514.239 69.8794 512.655 67.4875C511.476 65.702 510.567 62.8048 509.926 58.6273C509.152 53.6414 509.051 30.6992 509.792 27.7346C511.712 20.0199 516.193 17.1563 527.916 16.213C536.035 15.5729 545.603 16.6173 549.477 18.5712C553.688 20.7273 555.339 25.5112 555.979 37.336C556.35 44.5454 555.945 54.9889 555.137 59.9749C553.823 67.9592 551.532 70.3174 543.582 71.6986C540.078 72.3387 529.702 72.6082 525.524 72.204ZM542.032 66.9822C545.94 66.3084 547.86 65.3314 548.669 63.7144C550.05 60.9182 550.387 56.9429 550.387 43.4C550.42 29.3854 550.252 27.5662 548.568 24.9048C546.715 21.9738 542.84 21.0305 532.869 20.9968C522.661 20.9968 517.574 22.2096 516.462 24.9721C515.249 28.0041 515.047 30.9688 515.047 44.7475C515.081 59.0316 515.317 61.6256 516.833 64.2534C517.574 65.4999 520.134 66.6453 523.335 67.0832C527.04 67.6223 538.697 67.5549 542.032 66.9822Z" fill="white"/>
<path d="M281.414 44.2084V16.5835L297.517 16.6846C313.149 16.7856 313.654 16.8193 315.844 17.5605C320.123 19.0091 322.38 21.6368 323.39 26.4207C324.098 29.6548 323.862 37.8075 323.054 40.4689C322.312 42.8271 320.594 44.68 318.303 45.6233C316.08 46.5329 315.844 47.3751 317.663 47.9479C319.415 48.5543 321.302 50.3735 322.211 52.4285C322.986 54.1129 323.02 54.6183 323.121 63.0405L323.256 71.867H320.358H317.461V65.3987C317.461 58.324 317.124 55.292 316.114 53.3381C315.238 51.6536 313.351 50.1039 311.532 49.666C310.622 49.4302 305.805 49.2954 298.798 49.2954H287.478V60.5812V71.867H284.446H281.414V44.2084ZM308.736 44.2758C312.812 43.8378 314.261 43.3662 315.777 42.0186C317.764 40.1994 318.303 38.2791 318.27 32.9563C318.27 27.6335 317.63 25.1068 315.945 23.4897C314.025 21.7042 313.048 21.5695 299.707 21.4347L287.478 21.2999V32.9226V44.579H296.675C301.695 44.579 307.152 44.4442 308.736 44.2758Z" fill="white"/>
<path d="M438.068 44.2421V16.6172H452.656C468.59 16.6172 470.275 16.7856 473.779 18.5375C476.103 19.7503 477.585 21.6705 478.562 24.8036C479.236 26.9597 479.337 27.9367 479.337 33.4616C479.337 40.3679 479 42.086 477.181 44.9832C475.497 47.6447 472.532 49.0259 467.344 49.6323C465.794 49.8007 459.932 49.9692 454.34 49.9692H444.132V60.9181V71.867H441.1H438.068V44.2421ZM469.13 43.9726C472.97 42.6924 473.947 40.4689 473.913 33.1247C473.88 25.4774 473.004 23.2202 469.635 22.1085C468.153 21.6368 466.064 21.5358 456.025 21.401L444.132 21.2999V33.1247V44.9832L455.519 44.8485C466.131 44.7137 467.007 44.6463 469.13 43.9726Z" fill="white"/>
<path d="M432.578 407.341C432.78 407.105 460.81 367.79 494.903 319.986C627.132 134.528 640.574 115.696 641.146 115.022L641.719 114.315L689.086 114.382L736.486 114.483L684.47 187.386L632.454 260.289L634.408 263.018C635.453 264.5 646.132 279.626 658.125 296.572L679.922 327.363L678.81 328.913C678.204 329.755 665.335 347.813 650.175 369.104L622.617 407.745H527.446C451.343 407.745 432.343 407.644 432.578 407.341Z" fill="#0F75BD"/>
</svg>
